# xmcd
#
# Track frame offsets:
#	150
#	21690
#	39519
#	56412
#	73531
#	86515
#	104877
#	120848
#	136998
#	151185
#	171176
#	190097
#	207562
#	225979
#	243047
#
# Disc length: 3466 seconds
#
# Revision: 1
# Processed by: cddbd v1.4PL0 Copyright (c) Steve Scherf et al.
# Submitted via: EasyCDDAExtractor 6.0.0.1
#
DISCID=c40d880f
DTITLE=Bruno and Marrone - Inevitável(by dimas som)
DYEAR=2003
DGENRE=Country
TTITLE0=Será-Bruno and Marrone
TTITLE1=Vai Dar Namoro-Bruno and Marrone
TTITLE2=Deixa-Bruno and Marrone
TTITLE3=É Você Que Eu Amo-Bruno and Marrone
TTITLE4=Pra Lá Que Eu Vou-Bruno and Marrone
TTITLE5=Sonhos Perdidos-Bruno and Marrone
TTITLE6=Trânsito Parado-Bruno and Marrone
TTITLE7=Doce Desejo-Bruno and Marrone
TTITLE8=Apaziguar-Bruno and Marrone
TTITLE9=Se Não Tivesse Ido-Bruno and Marrone
TTITLE10=Você Não Me Ensinou A Te Esquecer-Bruno and Marrone
TTITLE11=Inevitável-Bruno and Marrone
TTITLE12=Coração de Pedra-Bruno and Marrone
TTITLE13=Foi Engano-Bruno and Marrone
TTITLE14=Ligação Urbana (Ao Vivo)-Bruno and Marrone
EXTD=YEAR: 2003 ID3G: 2
EXTT0=
EXTT1=
EXTT2=
EXTT3=
EXTT4=
EXTT5=
EXTT6=
EXTT7=
EXTT8=
EXTT9=
EXTT10=
EXTT11=
EXTT12=
EXTT13=
EXTT14=
PLAYORDER=
